<svg xmlns="http://www.w3.org/2000/svg" width="23" height="13" viewBox="0 0 23 13" fill="none">
  <path fill-rule="evenodd" clip-rule="evenodd" d="M0 6.50001C0 7.09544 0.482693 7.57813 1.07812 7.57813L19.1764 7.57813L16.157 10.3818C15.7207 10.787 15.6954 11.4692 16.1006 11.9055C16.5057 12.3418 17.1879 12.3671 17.6242 11.9619L22.6555 7.29005C22.8752 7.08605 23 6.7998 23 6.5C23 6.20021 22.8752 5.91396 22.6555 5.70996L17.6242 1.03809C17.1879 0.632924 16.5057 0.65819 16.1006 1.09452C15.6954 1.53085 15.7207 2.21301 16.157 2.61817L19.1764 5.42188L1.07812 5.42188C0.482693 5.42188 0 5.90457 0 6.50001Z" fill="#000"/>
</svg>