<svg xmlns="http://www.w3.org/2000/svg" width="16" height="16" viewBox="0 0 16 16" fill="none">
  <path d="M5.73437 7.5957L8.76438 9.3457L5.26436 15.4057L4.49938 13.2332L2.23438 13.6557L5.73437 7.5957Z" fill="#212529"/>
  <path d="M5.73063 7.5957L4.32812 10.0232C4.61312 10.5807 5.32812 10.7332 5.87063 10.7107C6.05135 10.7033 6.23223 10.721 6.40812 10.7632C6.77812 10.9132 7.12563 11.2882 7.56063 11.4232L8.76063 9.3457L5.73063 7.5957Z" fill="#111315"/>
  <path d="M10.2644 7.5957L7.23438 9.3457L10.7344 15.4057L11.4994 13.2332L13.7644 13.6557L10.2644 7.5957Z" fill="#212529"/>
  <path d="M10.2644 7.5957L7.23438 9.3457L8.43437 11.4232C8.86937 11.2882 9.21687 10.9232 9.58687 10.7632C9.76279 10.7211 9.94365 10.7035 10.1244 10.7107C10.6644 10.7332 11.3744 10.5782 11.6669 10.0232L10.2644 7.5957Z" fill="#111315"/>
  <path d="M7.89875 8.8432L4.83125 14.1632L4.50375 13.2332L3.53125 13.4157L6.60375 8.0957L7.89875 8.8432ZM12.4788 13.4157L11.5037 13.2332L11.1762 14.1657L8.10875 8.8432L9.40375 8.0957L12.4788 13.4157Z" fill="#DD051D"/>
  <path d="M9.39781 8.0957L8.10281 8.8457L9.30031 10.9207C9.74531 10.5732 10.3303 10.7982 10.8628 10.6357L9.39781 8.0957ZM6.59781 8.0957L5.13281 10.6332C5.66531 10.7957 6.25031 10.5707 6.69531 10.9182L7.89281 8.8432L6.59781 8.0957Z" fill="#A60416"/>
  <path d="M12.6386 5.875C12.6386 5.3475 13.0311 4.765 12.8886 4.29C12.7461 3.815 12.0511 3.56 11.7511 3.15C11.4511 2.74 11.4261 2.03 11.0011 1.7275C10.5761 1.425 9.91359 1.6225 9.42109 1.4775C8.92859 1.3325 8.52859 0.75 8.00109 0.75C7.47359 0.75 7.04359 1.31 6.56859 1.465C6.09359 1.62 5.39859 1.43 4.98859 1.715C4.57859 2 4.55109 2.715 4.23859 3.1375C3.92609 3.56 3.27609 3.785 3.11609 4.2775C2.95609 4.77 3.35359 5.335 3.35359 5.8625C3.35359 6.39 2.96109 6.9725 3.11609 7.4475C3.27109 7.9225 3.95109 8.19 4.25109 8.6C4.55109 9.01 4.57609 9.72 5.00109 10.0225C5.42609 10.325 6.08859 10.1275 6.58109 10.2725C7.07359 10.4175 7.47359 11 8.00109 11C8.52859 11 8.95859 10.44 9.43359 10.285C9.90859 10.13 10.6036 10.32 11.0136 10.035C11.4236 9.75 11.4511 9.035 11.7636 8.6125C12.0761 8.19 12.7261 7.965 12.8861 7.4725C13.0461 6.98 12.6386 6.4025 12.6386 5.875Z" fill="#CD7F32"/>
  <path d="M8 9.5C10.002 9.5 11.625 7.87703 11.625 5.875C11.625 3.87297 10.002 2.25 8 2.25C5.99797 2.25 4.375 3.87297 4.375 5.875C4.375 7.87703 5.99797 9.5 8 9.5Z" fill="#F9A215"/>
  <path d="M8.34307 4.00045L8.72307 4.65794C8.75065 4.70708 8.78868 4.74956 8.83447 4.78239C8.88026 4.81521 8.93269 4.83759 8.98807 4.84794L9.75057 5.00045C9.81877 5.01223 9.8825 5.0423 9.93495 5.08745C9.98741 5.1326 10.0266 5.19114 10.0484 5.25682C10.0702 5.32251 10.0738 5.39288 10.0588 5.46044C10.0438 5.52799 10.0107 5.59021 9.96307 5.64044L9.43807 6.19545C9.39987 6.23571 9.37109 6.28396 9.35379 6.33671C9.3365 6.38945 9.33113 6.44537 9.33807 6.50045L9.42807 7.25045C9.43487 7.31924 9.42338 7.38862 9.39475 7.45155C9.36613 7.51447 9.32139 7.56873 9.26507 7.60881C9.20874 7.6489 9.14283 7.6734 9.074 7.67983C9.00516 7.68626 8.93585 7.6744 8.87308 7.64545L8.17057 7.32794C8.11873 7.30447 8.06248 7.29233 8.00557 7.29233C7.94867 7.29233 7.89241 7.30447 7.84057 7.32794L7.13807 7.64545C7.0751 7.67563 7.00521 7.68847 6.93562 7.68263C6.86603 7.67679 6.79925 7.6525 6.74219 7.61224C6.68512 7.57199 6.63982 7.51724 6.61097 7.45364C6.58213 7.39004 6.57077 7.3199 6.57807 7.25045L6.66807 6.50045C6.67502 6.44537 6.66965 6.38945 6.65236 6.33671C6.63506 6.28396 6.60628 6.23571 6.56807 6.19545L6.04307 5.64044C5.99553 5.59054 5.96235 5.52871 5.94704 5.4615C5.93174 5.39429 5.93489 5.32419 5.95615 5.25862C5.97741 5.19305 6.01599 5.13445 6.06782 5.089C6.11964 5.04355 6.18279 5.01296 6.25057 5.00045L7.00057 4.85295C7.05596 4.84259 7.10839 4.82021 7.15418 4.78739C7.19997 4.75456 7.238 4.71208 7.26557 4.66295L7.65807 4.00045C7.69319 3.94083 7.74326 3.89141 7.80333 3.85708C7.8634 3.82275 7.93139 3.80469 8.00057 3.80469C8.06976 3.80469 8.13775 3.82275 8.19782 3.85708C8.25789 3.89141 8.30796 3.94083 8.34307 4.00045Z" fill="#CD7F32"/>
</svg>