<svg xmlns="http://www.w3.org/2000/svg" width="24" height="20" viewBox="0 0 24 20" fill="none">
  <path d="M12 7.625C11.5322 7.625 11.0689 7.71715 10.6367 7.89618C10.2045 8.07521 9.81174 8.33762 9.48093 8.66843C9.15012 8.99924 8.88771 9.39197 8.70868 9.82419C8.52965 10.2564 8.4375 10.7197 8.4375 11.1875C8.4375 11.6553 8.52965 12.1186 8.70868 12.5508C8.88771 12.983 9.15012 13.3758 9.48093 13.7066C9.81174 14.0374 10.2045 14.2998 10.6367 14.4788C11.0689 14.6579 11.5322 14.75 12 14.75C12.9448 14.75 13.851 14.3747 14.5191 13.7066C15.1872 13.0385 15.5625 12.1323 15.5625 11.1875C15.5625 10.2427 15.1872 9.33653 14.5191 8.66843C13.851 8.00033 12.9448 7.625 12 7.625ZM21.5 4.0625H18.65C18.4449 4.05314 18.247 3.98411 18.0805 3.86387C17.9141 3.74363 17.7864 3.57742 17.7131 3.38562L16.9756 1.17569C16.9018 0.984111 16.7737 0.818189 16.6071 0.698195C16.4405 0.578202 16.2426 0.509332 16.0375 0.5H7.9625C7.57062 0.5 7.14787 0.804 7.02556 1.1745L6.28694 3.38562C6.21349 3.57733 6.08575 3.74346 5.91934 3.86368C5.75293 3.9839 5.55507 4.05299 5.35 4.0625H2.5C1.19375 4.0625 0.125 5.13125 0.125 6.4375V17.125C0.125 18.4312 1.19375 19.5 2.5 19.5H21.5C22.8062 19.5 23.875 18.4312 23.875 17.125V6.4375C23.875 5.13125 22.8062 4.0625 21.5 4.0625ZM12 17.125C10.4253 17.125 8.91505 16.4994 7.80155 15.3859C6.68806 14.2724 6.0625 12.7622 6.0625 11.1875C6.0625 9.61278 6.68806 8.10255 7.80155 6.98905C8.91505 5.87556 10.4253 5.25 12 5.25C13.5747 5.25 15.0849 5.87556 16.1984 6.98905C17.3119 8.10255 17.9375 9.61278 17.9375 11.1875C17.9375 12.7622 17.3119 14.2724 16.1984 15.3859C15.0849 16.4994 13.5747 17.125 12 17.125ZM20.9062 7.8625C20.6858 7.8625 20.4744 7.77492 20.3185 7.61903C20.1626 7.46314 20.075 7.25171 20.075 7.03125C20.075 6.81079 20.1626 6.59936 20.3185 6.44347C20.4744 6.28758 20.6858 6.2 20.9062 6.2C21.1267 6.2 21.3381 6.28758 21.494 6.44347C21.6499 6.59936 21.7375 6.81079 21.7375 7.03125C21.7375 7.25171 21.6499 7.46314 21.494 7.61903C21.3381 7.77492 21.1267 7.8625 20.9062 7.8625Z" fill="#B7B7B7"/>
</svg>