<svg width="17" height="21" viewBox="0 0 17 21" fill="none" xmlns="http://www.w3.org/2000/svg">
<path d="M17 12.1125V2.7625C17 1.9125 16.15 1.20417 15.3 1.34583C14.7333 1.4875 14.1667 1.4875 13.6 1.4875C12.0417 1.4875 10.4833 1.0625 9.35 0.2125C8.925 -0.0708333 8.35833 -0.0708333 7.93333 0.2125C6.51667 1.0625 5.24167 1.4875 3.68333 1.4875C2.975 1.4875 2.26667 1.4875 1.7 1.34583C0.85 1.0625 0 1.77083 0 2.7625V12.2542" fill="url(#paint0_linear_351_86)"/>
<path d="M0 6.021V14.2377C0 15.371 0.566667 16.221 1.55833 16.7877L7.225 19.7627C8.075 20.1877 8.925 20.1877 9.775 19.7627L15.4417 16.9293C16.4333 16.5043 17 15.5127 17 14.3793V6.021" fill="url(#paint1_linear_351_86)"/>
<path d="M8 14C10.2091 14 12 12.2091 12 10C12 7.79086 10.2091 6 8 6C5.79086 6 4 7.79086 4 10C4 12.2091 5.79086 14 8 14Z" stroke="url(#paint2_linear_351_86)" stroke-width="0.7" stroke-linecap="round" stroke-linejoin="round"/>
<path d="M8.00004 12.4001C9.32552 12.4001 10.4 11.3256 10.4 10.0001C10.4 8.67461 9.32552 7.6001 8.00004 7.6001C6.67455 7.6001 5.60004 8.67461 5.60004 10.0001C5.60004 11.3256 6.67455 12.4001 8.00004 12.4001Z" stroke="url(#paint3_linear_351_86)" stroke-width="0.7" stroke-linecap="round" stroke-linejoin="round"/>
<path d="M8.00001 10.7997C8.44184 10.7997 8.80001 10.4415 8.80001 9.99971C8.80001 9.55788 8.44184 9.19971 8.00001 9.19971C7.55818 9.19971 7.20001 9.55788 7.20001 9.99971C7.20001 10.4415 7.55818 10.7997 8.00001 10.7997Z" stroke="url(#paint4_linear_351_86)" stroke-width="0.7" stroke-linecap="round" stroke-linejoin="round"/>
<defs>
<linearGradient id="paint0_linear_351_86" x1="0" y1="6.11292" x2="17" y2="6.11292" gradientUnits="userSpaceOnUse">
<stop stop-color="#4069FF"/>
<stop offset="1" stop-color="#5037CC"/>
</linearGradient>
<linearGradient id="paint1_linear_351_86" x1="0" y1="12.9471" x2="17" y2="12.9471" gradientUnits="userSpaceOnUse">
<stop stop-color="#4070FF"/>
<stop offset="1" stop-color="#6437CC"/>
</linearGradient>
<linearGradient id="paint2_linear_351_86" x1="4.0857" y1="10.0902" x2="11.9143" y2="10.0902" gradientUnits="userSpaceOnUse">
<stop stop-color="#37D9D6"/>
<stop offset="1" stop-color="#A8B0FF"/>
</linearGradient>
<linearGradient id="paint3_linear_351_86" x1="5.65146" y1="10.0542" x2="10.3486" y2="10.0542" gradientUnits="userSpaceOnUse">
<stop stop-color="#37D9D6"/>
<stop offset="1" stop-color="#A8B0FF"/>
</linearGradient>
<linearGradient id="paint4_linear_351_86" x1="7.21715" y1="10.0178" x2="8.78287" y2="10.0178" gradientUnits="userSpaceOnUse">
<stop stop-color="#37D9D6"/>
<stop offset="1" stop-color="#A8B0FF"/>
</linearGradient>
</defs>
</svg>
