<svg xmlns="http://www.w3.org/2000/svg" width="16" height="9" viewBox="0 0 16 9" fill="none">
  <path fill-rule="evenodd" clip-rule="evenodd" d="M0.180771 0.180771C0.237928 0.123469 0.305829 0.078006 0.380583 0.0469863C0.455338 0.0159666 0.535478 0 0.616412 0C0.697347 0 0.777487 0.0159666 0.852242 0.0469863C0.926996 0.078006 0.994897 0.123469 1.05205 0.180771L8.00016 7.13011L14.9483 0.180771C15.0055 0.123562 15.0734 0.0781807 15.1481 0.0472192C15.2229 0.0162578 15.303 0.000322157 15.3839 0.000322157C15.4648 0.000322157 15.5449 0.0162578 15.6197 0.0472192C15.6944 0.0781807 15.7623 0.123562 15.8196 0.180771C15.8768 0.23798 15.9221 0.305897 15.9531 0.380645C15.9841 0.455392 16 0.535506 16 0.616412C16 0.697318 15.9841 0.777432 15.9531 0.85218C15.9221 0.926927 15.8768 0.994844 15.8196 1.05205L8.4358 8.4358C8.37865 8.49311 8.31074 8.53857 8.23599 8.56959C8.16124 8.60061 8.0811 8.61657 8.00016 8.61657C7.91923 8.61657 7.83909 8.60061 7.76433 8.56959C7.68958 8.53857 7.62168 8.49311 7.56452 8.4358L0.180771 1.05205C0.123469 0.994896 0.0780066 0.926996 0.0469869 0.852241C0.0159672 0.777487 0 0.697347 0 0.616412C0 0.535477 0.0159672 0.455337 0.0469869 0.380583C0.0780066 0.305828 0.123469 0.237928 0.180771 0.180771Z" fill="#000"/>
</svg>