<svg width="17" height="21" viewBox="0 0 17 21" fill="none" xmlns="http://www.w3.org/2000/svg">
<path d="M17 12.1125V2.7625C17 1.9125 16.15 1.20417 15.3 1.34583C14.7333 1.4875 14.1667 1.4875 13.6 1.4875C12.0417 1.4875 10.4833 1.0625 9.35 0.2125C8.925 -0.0708333 8.35833 -0.0708333 7.93333 0.2125C6.51667 1.0625 5.24167 1.4875 3.68333 1.4875C2.975 1.4875 2.26667 1.4875 1.7 1.34583C0.85 1.0625 0 1.77083 0 2.7625V12.2542" fill="url(#paint0_linear_351_101)"/>
<path d="M0 6.021V14.2377C0 15.371 0.566667 16.221 1.55833 16.7877L7.225 19.7627C8.075 20.1877 8.925 20.1877 9.775 19.7627L15.4417 16.9293C16.4333 16.5043 17 15.5127 17 14.3793V6.021" fill="url(#paint1_linear_351_101)"/>
<g clip-path="url(#clip0_351_101)">
<path d="M11.6925 7.3425C11.6693 7.31382 11.6399 7.29065 11.6067 7.27466C11.5734 7.25867 11.537 7.25024 11.5 7.25H10.7125L10.75 6.5125C10.7516 6.47852 10.7461 6.44459 10.7341 6.41278C10.7221 6.38097 10.7037 6.35195 10.68 6.3275C10.6568 6.30312 10.6289 6.28369 10.5979 6.27038C10.567 6.25706 10.5337 6.25013 10.5 6.25H5.50004C5.46636 6.25013 5.43306 6.25706 5.40213 6.27038C5.3712 6.28369 5.34327 6.30312 5.32004 6.3275C5.2964 6.35195 5.278 6.38097 5.26596 6.41278C5.25393 6.44459 5.24851 6.47852 5.25004 6.5125L5.28754 7.2625H4.50004C4.46311 7.26274 4.4267 7.27117 4.39341 7.28716C4.36013 7.30315 4.3308 7.32632 4.30754 7.355C4.28483 7.38166 4.26798 7.4128 4.25807 7.44639C4.24817 7.47998 4.24543 7.51528 4.25004 7.55L4.67504 9.6475C4.70911 9.81737 4.80094 9.9702 4.93493 10.08C5.06891 10.1899 5.23679 10.2499 5.41004 10.25H5.63504C5.79105 10.5824 6.01559 10.8781 6.29392 11.1177C6.57225 11.3572 6.89808 11.5352 7.25004 11.64V12.25H8.75004V11.64C9.102 11.5352 9.42783 11.3572 9.70616 11.1177C9.98449 10.8781 10.209 10.5824 10.365 10.25H10.59C10.7633 10.2499 10.9312 10.1899 11.0652 10.08C11.1991 9.9702 11.291 9.81737 11.325 9.6475L11.75 7.55C11.7565 7.51331 11.7547 7.47564 11.7448 7.43974C11.7348 7.40384 11.717 7.37062 11.6925 7.3425ZM5.41004 9.75C5.35155 9.75118 5.2945 9.73181 5.24882 9.69527C5.20314 9.65872 5.17173 9.60732 5.16004 9.55L4.80504 7.75H5.30504L5.38004 9.265C5.39162 9.42862 5.41755 9.59092 5.45754 9.75H5.41004ZM10.835 9.55C10.8233 9.60732 10.7919 9.65872 10.7463 9.69527C10.7006 9.73181 10.6435 9.75118 10.585 9.75H10.5375C10.575 9.59069 10.5984 9.4284 10.6075 9.265L10.6875 7.75H11.1875L10.835 9.55ZM9.32004 12.75H6.68004L6.50004 13.44C6.49067 13.4769 6.48986 13.5154 6.49766 13.5527C6.50546 13.59 6.52166 13.625 6.54504 13.655C6.56935 13.6858 6.60058 13.7105 6.63619 13.727C6.67181 13.7435 6.71081 13.7514 6.75004 13.75H9.25004C9.28801 13.7502 9.32553 13.7418 9.35975 13.7253C9.39397 13.7088 9.42399 13.6848 9.44754 13.655C9.47091 13.625 9.48712 13.59 9.49492 13.5527C9.50271 13.5154 9.5019 13.4769 9.49254 13.44L9.32004 12.75Z" fill="url(#paint2_linear_351_101)"/>
</g>
<defs>
<linearGradient id="paint0_linear_351_101" x1="0" y1="6.11292" x2="17" y2="6.11292" gradientUnits="userSpaceOnUse">
<stop stop-color="#4AFF40"/>
<stop offset="1" stop-color="#118030"/>
</linearGradient>
<linearGradient id="paint1_linear_351_101" x1="0" y1="12.9471" x2="17" y2="12.9471" gradientUnits="userSpaceOnUse">
<stop stop-color="#73FF40"/>
<stop offset="1" stop-color="#106E1A"/>
</linearGradient>
<linearGradient id="paint2_linear_351_101" x1="4.32828" y1="10.0847" x2="11.6734" y2="10.0847" gradientUnits="userSpaceOnUse">
<stop stop-color="white"/>
<stop offset="1" stop-color="#3DF3A9"/>
</linearGradient>
<clipPath id="clip0_351_101">
<rect width="8" height="8" fill="white" transform="translate(4 6)"/>
</clipPath>
</defs>
</svg>
