<svg width="20" height="16" viewBox="0 0 20 16" fill="none" xmlns="http://www.w3.org/2000/svg">
<path d="M9.84375 10.2857C11.3586 10.2857 12.5866 9.0577 12.5866 7.54286C12.5866 6.02802 11.3586 4.8 9.84375 4.8C8.32891 4.8 7.10089 6.02802 7.10089 7.54286C7.10089 9.0577 8.32891 10.2857 9.84375 10.2857Z" fill="black" fill-opacity="0.6"/>
<path fill-rule="evenodd" clip-rule="evenodd" d="M0.0822972 7.03698C1.44207 2.94922 5.29784 0 9.84422 0C14.3885 0 18.2428 2.94648 19.6043 7.03127C19.7143 7.36139 19.7144 7.71856 19.6045 8.04874C18.2448 12.1365 14.389 15.0857 9.84262 15.0857C5.29835 15.0857 1.44406 12.1392 0.0825967 8.05444C-0.0274299 7.72433 -0.0275346 7.36716 0.0822972 7.03698ZM14.6438 7.54286C14.6438 10.1938 12.4947 12.3429 9.84375 12.3429C7.19278 12.3429 5.04375 10.1938 5.04375 7.54286C5.04375 4.89189 7.19278 2.74286 9.84375 2.74286C12.4947 2.74286 14.6438 4.89189 14.6438 7.54286Z" fill="black" fill-opacity="0.6"/>
</svg>
