<svg width="20" height="18" viewBox="0 0 20 18" fill="none" xmlns="http://www.w3.org/2000/svg">
<path d="M2.10005 0.372258C1.83226 0.10447 1.39809 0.10447 1.13031 0.372258C0.862517 0.640046 0.862517 1.07422 1.13031 1.342L17.5874 17.7991C17.8552 18.0669 18.2894 18.0669 18.5572 17.7991C18.825 17.5314 18.825 17.0972 18.5572 16.8294L2.10005 0.372258Z" fill="black" fill-opacity="0.6"/>
<path d="M19.6045 9.59158C19.1072 11.0868 18.2758 12.4297 17.1989 13.5316L14.366 10.6987C14.5458 10.1946 14.6438 9.65159 14.6438 9.0857C14.6438 6.43474 12.4947 4.2857 9.84375 4.2857C9.27787 4.2857 8.73486 4.38363 8.23074 4.56345L5.96624 2.29896C7.16291 1.81147 8.47212 1.54285 9.84422 1.54285C14.3885 1.54285 18.2428 4.48933 19.6043 8.57412C19.7143 8.90423 19.7144 9.26141 19.6045 9.59158Z" fill="black" fill-opacity="0.6"/>
<path d="M13.2723 9.0857C13.2723 9.25043 13.2607 9.41244 13.2382 9.57096L9.35849 5.69121C9.51702 5.66875 9.67903 5.65713 9.84375 5.65713C11.7373 5.65713 13.2723 7.19216 13.2723 9.0857Z" fill="black" fill-opacity="0.6"/>
<path d="M10.329 12.4802L6.44925 8.60045C6.42679 8.75897 6.41518 8.92098 6.41518 9.0857C6.41518 10.9793 7.9502 12.5143 9.84375 12.5143C10.0085 12.5143 10.1705 12.5027 10.329 12.4802Z" fill="black" fill-opacity="0.6"/>
<path d="M5.04375 9.0857C5.04375 8.51982 5.14167 7.97681 5.3215 7.47269L2.48825 4.63944C1.41117 5.74145 0.579725 7.08446 0.0822972 8.57983C-0.0275346 8.91 -0.0274299 9.26718 0.0825967 9.59729C1.44406 13.6821 5.29835 16.6286 9.84262 16.6286C11.2149 16.6286 12.5243 16.3599 13.7211 15.8723L11.4568 13.608C10.9526 13.7878 10.4096 13.8857 9.84375 13.8857C7.19278 13.8857 5.04375 11.7367 5.04375 9.0857Z" fill="black" fill-opacity="0.6"/>
</svg>
