<svg xmlns="http://www.w3.org/2000/svg" width="28" height="28" viewBox="0 0 28 28" fill="none">
  <path d="M22.1666 2.33301H5.83322C4.90496 2.33301 4.01473 2.70176 3.35835 3.35813C2.70197 4.01451 2.33322 4.90475 2.33322 5.83301V22.1663C2.33322 23.0946 2.70197 23.9848 3.35835 24.6412C4.01473 25.2976 4.90496 25.6663 5.83322 25.6663H22.1666C23.0948 25.6663 23.9851 25.2976 24.6414 24.6412C25.2978 23.9848 25.6666 23.0946 25.6666 22.1663V5.83301C25.6666 4.90475 25.2978 4.01451 24.6414 3.35813C23.9851 2.70176 23.0948 2.33301 22.1666 2.33301ZM11.6666 8.16634C12.128 8.16634 12.5792 8.30319 12.9629 8.55958C13.3466 8.81597 13.6457 9.18039 13.8223 9.60675C13.9989 10.0331 14.0451 10.5023 13.9551 10.9549C13.865 11.4075 13.6428 11.8233 13.3165 12.1496C12.9901 12.4759 12.5744 12.6981 12.1218 12.7882C11.6691 12.8782 11.2 12.832 10.7736 12.6554C10.3473 12.4788 9.98285 12.1797 9.72646 11.796C9.47007 11.4123 9.33322 10.9612 9.33322 10.4997C9.33322 9.88084 9.57905 9.28734 10.0166 8.84976C10.4542 8.41217 11.0477 8.16634 11.6666 8.16634ZM8.73822 23.333H5.83322C5.58628 23.3288 5.34705 23.2463 5.14997 23.0975C4.9529 22.9486 4.80814 22.7411 4.73655 22.5047L8.34156 18.1763C8.45777 18.0464 8.59968 17.9419 8.75833 17.8697C8.91698 17.7974 9.0889 17.7588 9.26322 17.7563C9.44038 17.7599 9.61441 17.8038 9.77208 17.8847C9.92975 17.9655 10.0669 18.0812 10.1732 18.223L11.3399 19.7747L8.73822 23.333ZM23.3332 22.1663C23.3332 22.4758 23.2103 22.7725 22.9915 22.9913C22.7727 23.2101 22.476 23.333 22.1666 23.333H11.6666L18.0482 14.5597C18.1472 14.4231 18.2746 14.3097 18.4216 14.2271C18.5686 14.1445 18.7318 14.0948 18.8999 14.0813C19.0689 14.0674 19.2389 14.0904 19.398 14.1488C19.5572 14.2073 19.7017 14.2997 19.8216 14.4197L23.3332 17.978V22.1663Z" fill="#B7B7B7"/>
</svg>