<svg xmlns="http://www.w3.org/2000/svg" width="12" height="23" viewBox="0 0 12 23" fill="none">
  <path fill-rule="evenodd" clip-rule="evenodd" d="M5.75001 0C6.34544 0 6.82813 0.482693 6.82813 1.07812L6.82813 19.1764L9.63184 16.157C10.037 15.7207 10.7192 15.6954 11.1555 16.1006C11.5918 16.5057 11.6171 17.1879 11.2119 17.6242L6.54005 22.6555C6.33605 22.8752 6.0498 23 5.75 23C5.45021 23 5.16396 22.8752 4.95996 22.6555L0.288087 17.6242C-0.117076 17.1879 -0.0918104 16.5057 0.344518 16.1006C0.780847 15.6954 1.46301 15.7207 1.86817 16.157L4.67188 19.1764L4.67188 1.07812C4.67188 0.482693 5.15457 0 5.75001 0Z" fill="white"/>
</svg>