<svg xmlns="http://www.w3.org/2000/svg" width="24" height="25" viewBox="0 0 24 25" fill="none">
  <path fill-rule="evenodd" clip-rule="evenodd" d="M2 13.5H14V11.5H2V13.5Z" fill="#FF5E5E"/>
  <path fill-rule="evenodd" clip-rule="evenodd" d="M4.79283 8.29289L1.29283 11.7929C0.902307 12.1834 0.902307 12.8166 1.29283 13.2071L4.79283 16.7071L6.20704 15.2929L3.41415 12.5L6.20704 9.70711L4.79283 8.29289ZM14.5954 6C12.1159 6 9.95746 7.43099 8.89247 9.53855L7.10743 8.63653C8.49484 5.89092 11.3226 4 14.5954 4C19.2491 4 22.9999 7.81769 22.9999 12.5C22.9999 17.1823 19.2491 21 14.5954 21C11.3226 21 8.49484 19.1091 7.10743 16.3635L8.89247 15.4615C9.95746 17.569 12.1159 19 14.5954 19C18.1205 19 20.9999 16.102 20.9999 12.5C20.9999 8.89803 18.1205 6 14.5954 6Z" fill="#FF5E5E"/>
</svg>