<svg xmlns="http://www.w3.org/2000/svg" width="20" height="21" viewBox="0 0 20 21" fill="none">
  <g clip-path="url(#clip0_92_31)">
    <path d="M7.86754 8.87458H6.18353L6.16461 6.75537L7.86754 8.87458ZM8.7947 10.025L9.81646 11.3003H6.19867V10.5775L6.19489 10.025H8.7947ZM14.0246 11.3003H11.3604L10.3425 10.025H14.0095V10.4299L14.0246 11.3003ZM14.0435 12.4507L14.0814 14.7137L12.28 12.4507H14.0435Z" fill="#1E1E1E"/>
    <path d="M10.0019 0.5C8.02371 0.5 6.08995 1.0866 4.44514 2.18562C2.80034 3.28464 1.51837 4.84673 0.761353 6.67433C0.00433367 8.50194 -0.193737 10.513 0.192188 12.4532C0.578113 14.3933 1.5307 16.1755 2.92949 17.5743C4.32828 18.9731 6.11045 19.9257 8.05062 20.3116C9.9908 20.6975 12.0018 20.4995 13.8295 19.7424C15.6571 18.9854 17.2191 17.7034 18.3182 16.0586C19.4172 14.4138 20.0038 12.4801 20.0038 10.5019C20.0038 7.84923 18.95 5.3052 17.0743 3.42949C15.1986 1.55377 12.6546 0.5 10.0019 0.5ZM17.3094 11.3004V12.4357H15.2999V17.1358H14.5431L10.7588 12.4357H6.2176V17.1358H4.92716V12.4508H2.70956V11.3155H4.92716V10.0175H2.70956V8.88221H4.92716V4.22753H5.737L9.44561 8.87465H14.0284V4.22753H15.3188V8.88221H17.3283V10.0175H15.3188V11.2928L17.3094 11.3004Z" fill="#1E1E1E"/>
  </g>
  <defs>
    <clipPath id="clip0_92_31">
      <rect width="20" height="20" fill="white" transform="translate(0 0.5)"/>
    </clipPath>
  </defs>
</svg>