<svg xmlns="http://www.w3.org/2000/svg" width="12" height="23" viewBox="0 0 12 23" fill="none">
  <path fill-rule="evenodd" clip-rule="evenodd" d="M5.75001 23C6.34544 23 6.82813 22.5173 6.82813 21.9219L6.82813 3.82361L9.63184 6.84299C10.037 7.27931 10.7192 7.30458 11.1555 6.89942C11.5918 6.49426 11.6171 5.81209 11.2119 5.37576L6.54005 0.344513C6.33605 0.124828 6.0498 -1.31044e-08 5.75 0C5.45021 1.31044e-08 5.16396 0.124828 4.95996 0.344513L0.288087 5.37576C-0.117076 5.81209 -0.0918104 6.49426 0.344518 6.89942C0.780847 7.30458 1.46301 7.27931 1.86817 6.84299L4.67188 3.82361L4.67188 21.9219C4.67188 22.5173 5.15457 23 5.75001 23Z" fill="white"/>
</svg>