<svg xmlns="http://www.w3.org/2000/svg" width="20" height="23" viewBox="0 0 20 23" fill="none">
  <path fill-rule="evenodd" clip-rule="evenodd" d="M10 0.345215C9.01542 0.345215 7.36747 0.715551 5.81623 1.12604C4.43261 1.49754 3.05797 1.90171 1.69345 2.33819C1.30389 2.46088 0.957033 2.69139 0.693029 3.00303C0.429024 3.31467 0.25868 3.69471 0.201697 4.09914C-0.650522 10.3413 1.32609 14.9668 3.72361 18.0276C4.74423 19.3411 5.95595 20.4942 7.31839 21.4484C7.87018 21.8292 8.38184 22.1192 8.81613 22.32C9.2177 22.5044 9.64604 22.6546 10 22.6546C10.354 22.6546 10.7838 22.5044 11.1839 22.32C11.6182 22.1192 12.1298 21.8292 12.6816 21.4484C14.0446 20.4943 15.2568 19.3412 16.2779 18.0276C18.6739 14.9668 20.6505 10.3413 19.7983 4.09914C19.7413 3.69471 19.5709 3.31467 19.3069 3.00303C19.0429 2.69139 18.6961 2.46088 18.3065 2.33819C16.942 1.9017 15.5673 1.49753 14.1838 1.12604C12.6325 0.715551 10.9861 0.345215 10 0.345215ZM10.7437 11.3735C11.2398 11.1981 11.6579 10.8528 11.9243 10.3989C12.1906 9.945 12.2878 9.41157 12.1988 8.89289C12.1098 8.3742 11.8403 7.90367 11.4379 7.56446C11.0356 7.22525 10.5262 7.0392 10 7.0392C9.47371 7.0392 8.96436 7.22525 8.562 7.56446C8.15964 7.90367 7.89017 8.3742 7.80118 8.89289C7.71218 9.41157 7.80942 9.945 8.07575 10.3989C8.34198 10.8528 8.7602 11.1981 9.25637 11.3735L8.68376 14.3332C8.66294 14.4409 8.66611 14.5517 8.69318 14.658C8.72025 14.7643 8.77052 14.8633 8.84022 14.9479C8.91002 15.0324 8.99768 15.1004 9.09683 15.1472C9.19608 15.194 9.30436 15.2181 9.41402 15.2181H10.586C10.6955 15.2179 10.8036 15.1936 10.9026 15.1468C11.0017 15.0999 11.0891 15.0317 11.1587 14.9473C11.2283 14.8627 11.2784 14.7638 11.3054 14.6576C11.3323 14.5515 11.3356 14.4407 11.3148 14.3332L10.7437 11.3735Z" fill="#1E1E1E"/>
</svg>