<svg width="17" height="21" viewBox="0 0 17 21" fill="none" xmlns="http://www.w3.org/2000/svg">
<path d="M17 12.1125V2.7625C17 1.9125 16.15 1.20417 15.3 1.34583C14.7333 1.4875 14.1667 1.4875 13.6 1.4875C12.0417 1.4875 10.4833 1.0625 9.35 0.2125C8.925 -0.0708333 8.35833 -0.0708333 7.93333 0.2125C6.51667 1.0625 5.24167 1.4875 3.68333 1.4875C2.975 1.4875 2.26667 1.4875 1.7 1.34583C0.85 1.0625 0 1.77083 0 2.7625V12.2542" fill="url(#paint0_linear_351_111)"/>
<path d="M0 6.021V14.2377C0 15.371 0.566667 16.221 1.55833 16.7877L7.225 19.7627C8.075 20.1877 8.925 20.1877 9.775 19.7627L15.4417 16.9293C16.4333 16.5043 17 15.5127 17 14.3793V6.021" fill="url(#paint1_linear_351_111)"/>
<g clip-path="url(#clip0_351_111)">
<path d="M6.85714 7.14286H9.14286V6.57143H6.85714V7.14286ZM12 10V12.1429C12 12.3393 11.9301 12.5074 11.7902 12.6473C11.6503 12.7872 11.4821 12.8571 11.2857 12.8571H4.71429C4.51786 12.8571 4.3497 12.7872 4.20982 12.6473C4.06994 12.5074 4 12.3393 4 12.1429V10H7V10.7143C7 10.7917 7.02827 10.8586 7.08482 10.9152C7.14137 10.9717 7.20833 11 7.28571 11H8.71429C8.79167 11 8.85863 10.9717 8.91518 10.9152C8.97173 10.8586 9 10.7917 9 10.7143V10H12ZM8.57143 10V10.5714H7.42857V10H8.57143ZM12 7.85714V9.57143H4V7.85714C4 7.66071 4.06994 7.49256 4.20982 7.35268C4.3497 7.2128 4.51786 7.14286 4.71429 7.14286H6.28571V6.42857C6.28571 6.30952 6.32738 6.20833 6.41071 6.125C6.49405 6.04167 6.59524 6 6.71429 6H9.28571C9.40476 6 9.50595 6.04167 9.58929 6.125C9.67262 6.20833 9.71429 6.30952 9.71429 6.42857V7.14286H11.2857C11.4821 7.14286 11.6503 7.2128 11.7902 7.35268C11.9301 7.49256 12 7.66071 12 7.85714Z" fill="url(#paint2_linear_351_111)"/>
</g>
<defs>
<linearGradient id="paint0_linear_351_111" x1="0" y1="6.11292" x2="17" y2="6.11292" gradientUnits="userSpaceOnUse">
<stop stop-color="#FF40CC"/>
<stop offset="1" stop-color="#801157"/>
</linearGradient>
<linearGradient id="paint1_linear_351_111" x1="0" y1="12.9471" x2="17" y2="12.9471" gradientUnits="userSpaceOnUse">
<stop stop-color="#FF4096"/>
<stop offset="1" stop-color="#6E105C"/>
</linearGradient>
<linearGradient id="paint2_linear_351_111" x1="4.0857" y1="9.50592" x2="11.9143" y2="9.50592" gradientUnits="userSpaceOnUse">
<stop stop-color="white"/>
<stop offset="1" stop-color="#FF65BA"/>
</linearGradient>
<clipPath id="clip0_351_111">
<rect width="8" height="7" fill="white" transform="translate(4 6)"/>
</clipPath>
</defs>
</svg>
