<svg width="17" height="21" viewBox="0 0 17 21" fill="none" xmlns="http://www.w3.org/2000/svg">
<path d="M17 12.1125V2.7625C17 1.9125 16.15 1.20417 15.3 1.34583C14.7333 1.4875 14.1667 1.4875 13.6 1.4875C12.0417 1.4875 10.4833 1.0625 9.35 0.2125C8.925 -0.0708333 8.35833 -0.0708333 7.93333 0.2125C6.51667 1.0625 5.24167 1.4875 3.68333 1.4875C2.975 1.4875 2.26667 1.4875 1.7 1.34583C0.85 1.0625 0 1.77083 0 2.7625V12.2542" fill="url(#paint0_linear_351_82)"/>
<path d="M0 6.021V14.2377C0 15.371 0.566667 16.221 1.55833 16.7877L7.225 19.7627C8.075 20.1877 8.925 20.1877 9.775 19.7627L15.4417 16.9293C16.4333 16.5043 17 15.5127 17 14.3793V6.021" fill="url(#paint1_linear_351_82)"/>
<path d="M8.78337 6.02079L9.77504 8.00412C9.9167 8.28746 10.2 8.42912 10.4834 8.42912L12.6084 8.71246C12.8917 8.71246 12.8917 8.99579 12.75 9.13745L11.1917 10.6958C11.05 10.8375 10.9084 11.1208 10.9084 11.4041L11.3334 13.5291C11.3334 13.8125 11.1917 13.9541 10.9084 13.8125L8.92504 12.8208C8.6417 12.6791 8.35837 12.6791 8.07504 12.8208L6.0917 13.8125C5.95004 13.9541 5.6667 13.8125 5.6667 13.5291L6.0917 11.4041C6.0917 11.1208 6.0917 10.8375 5.80837 10.6958L4.25004 9.13745C4.10837 8.99579 4.10837 8.71246 4.3917 8.71246L6.65837 8.57079C6.9417 8.57079 7.22504 8.28746 7.3667 8.14579L8.35837 6.16246C8.35837 5.87912 8.6417 5.87912 8.78337 6.02079Z" fill="url(#paint2_linear_351_82)"/>
<defs>
<linearGradient id="paint0_linear_351_82" x1="0" y1="6.11292" x2="17" y2="6.11292" gradientUnits="userSpaceOnUse">
<stop stop-color="#C6FF40"/>
<stop offset="1" stop-color="#CACC37"/>
</linearGradient>
<linearGradient id="paint1_linear_351_82" x1="0" y1="12.9471" x2="17" y2="12.9471" gradientUnits="userSpaceOnUse">
<stop stop-color="#C6FF40"/>
<stop offset="1" stop-color="#CACC37"/>
</linearGradient>
<linearGradient id="paint2_linear_351_82" x1="4.25004" y1="9.98746" x2="12.75" y2="9.98746" gradientUnits="userSpaceOnUse">
<stop stop-color="#00100A"/>
<stop offset="1" stop-color="#015634"/>
</linearGradient>
</defs>
</svg>
