<svg xmlns="http://www.w3.org/2000/svg" width="116" height="116" viewBox="0 0 116 116" fill="none">
  <path d="M58.6906 21.5181C51.0431 21.5181 43.5673 23.7858 37.2086 28.0346C30.8499 32.2833 25.8939 38.3222 22.9673 45.3876C20.0407 52.453 19.275 60.2276 20.7669 67.7282C22.2589 75.2288 25.9415 82.1186 31.3491 87.5262C36.7568 92.9338 43.6465 96.6165 51.1471 98.1084C58.6477 99.6004 66.4223 98.8347 73.4877 95.9081C80.5531 92.9815 86.592 88.0255 90.8408 81.6668C95.0895 75.3081 97.3573 67.8323 97.3573 60.1847C97.3458 49.9332 93.2683 40.1049 86.0193 32.856C78.7704 25.6071 68.9421 21.5296 58.6906 21.5181ZM58.6906 96.0895C51.5893 96.0895 44.6475 93.9837 38.743 90.0385C32.8385 86.0932 28.2365 80.4856 25.5189 73.9249C22.8014 67.3642 22.0904 60.1449 23.4757 53.1801C24.8611 46.2152 28.2807 39.8176 33.3021 34.7962C38.3235 29.7749 44.7211 26.3553 51.6859 24.9699C58.6508 23.5845 65.87 24.2955 72.4308 27.0131C78.9915 29.7306 84.5991 34.3326 88.5443 40.2371C92.4896 46.1416 94.5954 53.0834 94.5954 60.1847C94.5846 69.704 90.7983 78.8302 84.0672 85.5613C77.3361 92.2924 68.2098 96.0787 58.6906 96.0895Z" fill="#14D703"/>
  <path d="M79.8175 42.6286L47.1387 74.7855L37.5956 64.7563C37.3426 64.4934 36.9958 64.3414 36.6311 64.3334C36.2663 64.3253 35.9132 64.462 35.6488 64.7135C35.3845 64.9649 35.2304 65.3108 35.2203 65.6755C35.2101 66.0402 35.3447 66.3941 35.5946 66.66L46.1057 77.7076C46.232 77.8405 46.3835 77.9469 46.5514 78.0206C46.7193 78.0944 46.9001 78.134 47.0835 78.1371H47.1069C47.4692 78.1368 47.8169 77.9942 48.075 77.74L81.7536 44.5972C81.888 44.4712 81.9959 44.3197 82.0708 44.1515C82.1458 43.9833 82.1863 43.8018 82.1901 43.6176C82.1939 43.4335 82.1608 43.2505 82.0927 43.0794C82.0247 42.9082 81.9231 42.7524 81.794 42.6211C81.6649 42.4898 81.5108 42.3857 81.3408 42.3148C81.1708 42.2439 80.9884 42.2078 80.8042 42.2085C80.62 42.2092 80.4379 42.2467 80.2684 42.3189C80.099 42.391 79.9457 42.4963 79.8175 42.6286Z" fill="#1E1E1E"/>
  <path d="M104.069 101.441H73.3707C83.0892 97.8352 91.2309 90.9279 96.372 81.9269C101.513 72.9259 103.326 62.404 101.495 52.2014C99.6632 41.9987 94.3032 32.7646 86.3523 26.1139C78.4013 19.4632 68.3654 15.8193 57.9997 15.8193C47.6339 15.8193 37.598 19.4632 29.647 26.1139C21.6961 32.7646 16.3361 41.9987 14.5045 52.2014C12.6729 62.404 14.4862 72.9259 19.6273 81.9269C24.7684 90.9279 32.9101 97.8352 42.6286 101.441H11.9301C11.7336 101.415 11.5339 101.432 11.3444 101.489C11.1548 101.547 10.9797 101.644 10.8308 101.775C10.682 101.906 10.5627 102.067 10.4809 102.247C10.3992 102.428 10.3569 102.624 10.3569 102.822C10.3569 103.02 10.3992 103.216 10.4809 103.396C10.5627 103.577 10.682 103.738 10.8308 103.868C10.9797 103.999 11.1548 104.096 11.3444 104.154C11.5339 104.212 11.7336 104.228 11.9301 104.203H104.069C104.266 104.228 104.465 104.212 104.655 104.154C104.845 104.096 105.02 103.999 105.168 103.868C105.317 103.738 105.437 103.577 105.518 103.396C105.6 103.216 105.642 103.02 105.642 102.822C105.642 102.624 105.6 102.428 105.518 102.247C105.437 102.067 105.317 101.906 105.168 101.775C105.02 101.644 104.845 101.547 104.655 101.489C104.465 101.432 104.266 101.415 104.069 101.441ZM16.5714 60.0122C16.5714 51.8184 19.0012 43.8086 23.5534 36.9957C28.1056 30.1828 34.5759 24.8728 42.146 21.7372C49.7161 18.6015 58.046 17.7811 66.0823 19.3797C74.1187 20.9782 81.5005 24.9239 87.2944 30.7178C93.0883 36.5117 97.034 43.8935 98.6326 51.9299C100.231 59.9662 99.4107 68.2961 96.275 75.8662C93.1394 83.4363 87.8294 89.9065 81.0165 94.4588C74.2036 99.011 66.1938 101.441 58 101.441C47.0163 101.428 36.486 97.0596 28.7193 89.2929C20.9526 81.5262 16.5839 70.9959 16.5714 60.0122ZM61.1072 12.1967C61.5168 12.1967 61.9173 12.0752 62.258 11.8476C62.5986 11.62 62.8641 11.2965 63.0209 10.918C63.1777 10.5395 63.2187 10.123 63.1388 9.72117C63.0589 9.31935 62.8616 8.95026 62.5719 8.66056C62.2822 8.37087 61.9131 8.17358 61.5113 8.09366C61.1095 8.01373 60.693 8.05475 60.3145 8.21153C59.936 8.36832 59.6124 8.63382 59.3848 8.97446C59.1572 9.3151 59.0357 9.71559 59.0357 10.1253C59.0363 10.6745 59.2547 11.201 59.643 11.5894C60.0314 11.9777 60.5579 12.1962 61.1072 12.1967ZM61.1072 9.08957C61.312 9.08957 61.5122 9.15031 61.6826 9.26412C61.8529 9.37792 61.9856 9.53968 62.064 9.72893C62.1424 9.91818 62.1629 10.1264 62.123 10.3273C62.083 10.5283 61.9844 10.7128 61.8395 10.8576C61.6947 11.0025 61.5101 11.1011 61.3092 11.1411C61.1083 11.1811 60.9001 11.1606 60.7108 11.0822C60.5216 11.0038 60.3598 10.871 60.246 10.7007C60.1322 10.5304 60.0714 10.3301 60.0714 10.1253C60.0716 9.85065 60.1808 9.58732 60.375 9.39313C60.5692 9.19893 60.8325 9.08975 61.1072 9.08957ZM109.306 46.8931C109.033 46.8931 108.766 46.9741 108.539 47.1259C108.312 47.2776 108.135 47.4933 108.03 47.7456C107.925 47.998 107.898 48.2756 107.951 48.5435C108.005 48.8114 108.136 49.0574 108.329 49.2506C108.523 49.4437 108.769 49.5752 109.036 49.6285C109.304 49.6818 109.582 49.6544 109.834 49.5499C110.087 49.4454 110.302 49.2684 110.454 49.0413C110.606 48.8142 110.687 48.5472 110.687 48.2741C110.686 47.908 110.541 47.5569 110.282 47.298C110.023 47.0391 109.672 46.8935 109.306 46.8931ZM109.306 48.9646C109.169 48.9646 109.036 48.9241 108.922 48.8482C108.809 48.7723 108.72 48.6645 108.668 48.5383C108.616 48.4122 108.602 48.2733 108.629 48.1394C108.655 48.0054 108.721 47.8824 108.818 47.7859C108.914 47.6893 109.037 47.6235 109.171 47.5969C109.305 47.5702 109.444 47.5839 109.57 47.6362C109.696 47.6884 109.804 47.7769 109.88 47.8905C109.956 48.004 109.996 48.1375 109.996 48.2741C109.996 48.4572 109.923 48.6327 109.794 48.7621C109.664 48.8916 109.489 48.9644 109.306 48.9646ZM89.7619 2.47205C89.4888 2.47205 89.2218 2.55304 88.9947 2.70478C88.7676 2.85652 88.5906 3.07219 88.4861 3.32453C88.3816 3.57687 88.3542 3.85453 88.4075 4.12241C88.4608 4.39029 88.5923 4.63635 88.7854 4.82948C88.9786 5.02261 89.2246 5.15413 89.4925 5.20742C89.7604 5.2607 90.0381 5.23335 90.2904 5.12883C90.5427 5.02431 90.7584 4.84731 90.9101 4.62021C91.0619 4.39312 91.1429 4.12612 91.1429 3.853C91.1425 3.48686 90.9969 3.13582 90.738 2.87692C90.4791 2.61802 90.1281 2.47241 89.7619 2.47205ZM89.7619 4.54347C89.6254 4.54347 89.4919 4.50298 89.3783 4.42711C89.2648 4.35124 89.1763 4.2434 89.124 4.11723C89.0717 3.99106 89.0581 3.85223 89.0847 3.71829C89.1114 3.58435 89.1771 3.46132 89.2737 3.36476C89.3702 3.26819 89.4933 3.20243 89.6272 3.17579C89.7612 3.14915 89.9 3.16282 90.0262 3.21508C90.1523 3.26734 90.2602 3.35584 90.336 3.46939C90.4119 3.58294 90.4524 3.71643 90.4524 3.853C90.4522 4.03607 90.3794 4.21159 90.25 4.34104C90.1205 4.47049 89.945 4.54329 89.7619 4.54347ZM111.397 10.5278C111.123 10.5278 110.856 10.6088 110.629 10.7606C110.402 10.9123 110.225 11.128 110.121 11.3803C110.016 11.6327 109.989 11.9103 110.042 12.1782C110.095 12.4461 110.227 12.6921 110.42 12.8853C110.613 13.0784 110.859 13.2099 111.127 13.2632C111.395 13.3165 111.673 13.2891 111.925 13.1846C112.177 13.0801 112.393 12.9031 112.545 12.676C112.697 12.4489 112.778 12.1819 112.778 11.9088C112.777 11.5426 112.632 11.1916 112.373 10.9327C112.114 10.6738 111.763 10.5282 111.397 10.5278ZM111.397 12.5993C111.26 12.5993 111.127 12.5588 111.013 12.4829C110.899 12.407 110.811 12.2992 110.759 12.173C110.706 12.0468 110.693 11.908 110.719 11.7741C110.746 11.6401 110.812 11.5171 110.908 11.4205C111.005 11.324 111.128 11.2582 111.262 11.2316C111.396 11.2049 111.535 11.2186 111.661 11.2709C111.787 11.3231 111.895 11.4116 111.971 11.5252C112.047 11.6387 112.087 11.7722 112.087 11.9088C112.087 12.0919 112.014 12.2674 111.885 12.3968C111.755 12.5263 111.58 12.5991 111.397 12.5993ZM20.9249 21.1149C20.9249 20.8418 20.8439 20.5748 20.6922 20.3477C20.5404 20.1206 20.3247 19.9436 20.0724 19.8391C19.8201 19.7345 19.5424 19.7072 19.2745 19.7605C19.0067 19.8138 18.7606 19.9453 18.5675 20.1384C18.3743 20.3316 18.2428 20.5776 18.1895 20.8455C18.1362 21.1134 18.1636 21.391 18.2681 21.6434C18.3726 21.8957 18.5496 22.1114 18.7767 22.2631C19.0038 22.4149 19.2708 22.4959 19.5439 22.4959C19.9101 22.4955 20.2611 22.3499 20.52 22.091C20.7789 21.8321 20.9245 21.481 20.9249 21.1149ZM18.8535 21.1149C18.8535 20.9783 18.894 20.8448 18.9698 20.7313C19.0457 20.6177 19.1535 20.5292 19.2797 20.477C19.4059 20.4247 19.5447 20.4111 19.6786 20.4377C19.8126 20.4643 19.9356 20.5301 20.0322 20.6267C20.1287 20.7232 20.1945 20.8463 20.2212 20.9802C20.2478 21.1141 20.2341 21.253 20.1819 21.3791C20.1296 21.5053 20.0411 21.6131 19.9276 21.689C19.814 21.7649 19.6805 21.8054 19.5439 21.8054C19.3609 21.8052 19.1854 21.7324 19.0559 21.6029C18.9265 21.4735 18.8536 21.298 18.8535 21.1149Z" fill="#1E1E1E"/>
  <path d="M7.51768 46.9005L8.54442 45.55L7.89606 45.1826L7.23665 46.6948H7.21525L6.54549 45.1937L5.88608 45.5714L6.90177 46.8902V46.9116L5.31299 46.7058V47.4405L6.91213 47.2354V47.2568L5.88608 48.5749L6.5013 48.9644L7.2042 47.4405H7.22561L7.87396 48.9533L8.55477 48.5646L7.51768 47.2679V47.2458L9.14858 47.4405V46.7058L7.51768 46.9219V46.9005ZM8.39735 4.30712L7.8063 5.06595L8.16051 5.29036L8.56513 4.41276H8.57756L8.95111 5.28414L9.3433 5.05974L8.74604 4.31333V4.3009L9.68508 4.41276V3.9895L8.74604 4.11448V4.10205L9.33708 3.32388L8.96354 3.11259L8.58446 3.98328H8.57134L8.18606 3.11881L7.8063 3.33631L8.39113 4.09583V4.10826L7.47625 3.9895V4.41276L8.39735 4.29469V4.30712ZM45.0913 4.34578V3.62493L43.4915 3.8369V3.8155L44.4982 2.49117L43.8623 2.13074L43.216 3.61457H43.1946L42.5379 2.14109L41.891 2.51257L42.8873 3.80514V3.82655L41.3289 3.62493V4.34578L42.8977 4.14417V4.16557L41.891 5.45814L42.4951 5.83998L43.1842 4.34578H43.2049L43.8409 5.82893L44.5086 5.44778L43.4915 4.17593V4.15452L45.0913 4.34578ZM95.8779 24.7459L96.7465 23.6032L96.1976 23.2925L95.6404 24.5719H95.6217L95.0556 23.3014L94.497 23.6211L95.3566 24.7369V24.7549L94.0129 24.5809V25.2023L95.3656 25.029V25.0476L94.497 26.1621L95.0183 26.4914L95.6128 25.2023H95.6307L96.179 26.4825L96.7555 26.1531L95.8779 25.0566V25.038L97.2575 25.2023V24.5809L95.8779 24.7639V24.7459Z" fill="#14D703"/>
  <path d="M1.38095 104.202C2.14363 104.202 2.7619 103.584 2.7619 102.822C2.7619 102.059 2.14363 101.441 1.38095 101.441C0.618273 101.441 0 102.059 0 102.822C0 103.584 0.618273 104.202 1.38095 104.202Z" fill="#1E1E1E"/>
  <path d="M7.59496 101.441H5.52353C5.15728 101.441 4.80603 101.586 4.54705 101.845C4.28807 102.104 4.14258 102.455 4.14258 102.822C4.14258 103.188 4.28807 103.539 4.54705 103.798C4.80603 104.057 5.15728 104.202 5.52353 104.202H7.59496C7.96121 104.202 8.31246 104.057 8.57144 103.798C8.83042 103.539 8.97591 103.188 8.97591 102.822C8.97591 102.455 8.83042 102.104 8.57144 101.845C8.31246 101.586 7.96121 101.441 7.59496 101.441ZM110.476 101.441H108.404C108.038 101.441 107.687 101.586 107.428 101.845C107.169 102.104 107.024 102.455 107.024 102.822C107.024 103.188 107.169 103.539 107.428 103.798C107.687 104.057 108.038 104.202 108.404 104.202H110.476C110.842 104.202 111.193 104.057 111.452 103.798C111.711 103.539 111.857 103.188 111.857 102.822C111.857 102.455 111.711 102.104 111.452 101.845C111.193 101.586 110.842 101.441 110.476 101.441Z" fill="#1E1E1E"/>
  <path d="M114.619 104.202C115.382 104.202 116 103.584 116 102.822C116 102.059 115.382 101.441 114.619 101.441C113.857 101.441 113.238 102.059 113.238 102.822C113.238 103.584 113.857 104.202 114.619 104.202Z" fill="#1E1E1E"/>
  <path d="M81.5827 106.964H75.8463C75.4985 106.991 75.1737 107.149 74.9368 107.405C74.6998 107.661 74.5682 107.997 74.5682 108.345C74.5682 108.694 74.6998 109.03 74.9368 109.286C75.1737 109.542 75.4985 109.699 75.8463 109.726H81.5827C81.9305 109.699 82.2553 109.542 82.4922 109.286C82.7292 109.03 82.8608 108.694 82.8608 108.345C82.8608 107.997 82.7292 107.661 82.4922 107.405C82.2553 107.149 81.9305 106.991 81.5827 106.964ZM40.1542 106.964H34.4177C34.0699 106.991 33.7451 107.149 33.5082 107.405C33.2713 107.661 33.1396 107.997 33.1396 108.345C33.1396 108.694 33.2713 109.03 33.5082 109.286C33.7451 109.542 34.0699 109.699 34.4177 109.726H40.1542C40.5019 109.699 40.8267 109.542 41.0637 109.286C41.3006 109.03 41.4322 108.694 41.4322 108.345C41.4322 107.997 41.3006 107.661 41.0637 107.405C40.8267 107.149 40.5019 106.991 40.1542 106.964ZM71.8097 106.964H44.1907C43.8244 106.964 43.4732 107.11 43.2142 107.369C42.9552 107.628 42.8097 107.979 42.8097 108.345C42.8097 108.712 42.9552 109.063 43.2142 109.322C43.4732 109.581 43.8244 109.726 44.1907 109.726H55.1969V111.107H49.7145C49.3483 111.107 48.997 111.253 48.738 111.512C48.479 111.771 48.3336 112.122 48.3336 112.488C48.3336 112.855 48.479 113.206 48.738 113.465C48.997 113.724 49.3483 113.869 49.7145 113.869H66.9764C67.3427 113.869 67.6939 113.724 67.9529 113.465C68.2119 113.206 68.3574 112.855 68.3574 112.488C68.3574 112.122 68.2119 111.771 67.9529 111.512C67.6939 111.253 67.3427 111.107 66.9764 111.107H60.8035V109.726H71.8097C72.176 109.726 72.5272 109.581 72.7862 109.322C73.0452 109.063 73.1907 108.712 73.1907 108.345C73.1907 107.979 73.0452 107.628 72.7862 107.369C72.5272 107.11 72.176 106.964 71.8097 106.964Z" fill="#14D703"/>
</svg>