<svg width="17" height="21" viewBox="0 0 17 21" fill="none" xmlns="http://www.w3.org/2000/svg">
<path d="M17 12.1125V2.7625C17 1.9125 16.15 1.20417 15.3 1.34583C14.7333 1.4875 14.1667 1.4875 13.6 1.4875C12.0417 1.4875 10.4833 1.0625 9.35 0.2125C8.925 -0.0708333 8.35833 -0.0708333 7.93333 0.2125C6.51667 1.0625 5.24167 1.4875 3.68333 1.4875C2.975 1.4875 2.26667 1.4875 1.7 1.34583C0.85 1.0625 0 1.77083 0 2.7625V12.2542" fill="url(#paint0_linear_351_119)"/>
<path d="M0 6.021V14.2377C0 15.371 0.566667 16.221 1.55833 16.7877L7.225 19.7627C8.075 20.1877 8.925 20.1877 9.775 19.7627L15.4417 16.9293C16.4333 16.5043 17 15.5127 17 14.3793V6.021" fill="url(#paint1_linear_351_119)"/>
<path d="M11.0992 13.992V14.0895C11.0992 14.2663 10.9559 14.4099 10.7789 14.4099H4.91964C4.7426 14.4099 4.5993 14.2663 4.5993 14.0895V13.992C4.5993 13.8152 4.7426 13.6719 4.91964 13.6719H10.7789C10.9559 13.6719 11.0992 13.8152 11.0992 13.992Z" fill="#FFCF6F"/>
<path opacity="0.2" d="M11.0992 13.992V14.0895C11.0992 14.1263 11.093 14.1617 11.0814 14.1946C11.038 14.0696 10.9189 13.9797 10.7789 13.9797H4.91964C4.77956 13.9797 4.66053 14.0696 4.61714 14.1946C4.60553 14.1617 4.5993 14.1263 4.5993 14.0895V13.992C4.5993 13.8152 4.7426 13.6719 4.91964 13.6719H10.7789C10.9559 13.6719 11.0992 13.8152 11.0992 13.992Z" fill="black"/>
<path d="M4.2983 9.36475C4.20678 9.52824 4.0508 9.65092 3.86475 9.69818C3.80996 9.71215 3.75238 9.71967 3.69309 9.71967C3.31023 9.71967 3 9.40943 3 9.02658C3 8.64373 3.31023 8.3335 3.69309 8.3335C4.07594 8.3335 4.38617 8.64373 4.38617 9.02658C4.38617 9.14947 4.35416 9.26484 4.2983 9.36475Z" fill="#2FC1F1"/>
<path d="M7.84922 6C8.37215 6 8.79604 6.42389 8.79604 6.94682C8.79604 7.41066 8.46217 7.79695 8.02131 7.87773C7.96545 7.88805 7.90809 7.89342 7.84922 7.89342C7.79035 7.89342 7.73299 7.88805 7.67713 7.87773C7.23627 7.79695 6.9024 7.41066 6.9024 6.94682C6.9024 6.42389 7.32629 6 7.84922 6Z" fill="#DD6475"/>
<path d="M7.20624 7.0434C7.1806 7.0434 7.15601 7.03321 7.13788 7.01508C7.11974 6.99695 7.10956 6.97236 7.10956 6.94672C7.10956 6.53886 7.44138 6.20703 7.84924 6.20703C7.87488 6.20703 7.89948 6.21722 7.91761 6.23535C7.93574 6.25348 7.94592 6.27807 7.94592 6.30371C7.94592 6.32935 7.93574 6.35394 7.91761 6.37207C7.89948 6.3902 7.87488 6.40039 7.84924 6.40039C7.54801 6.40039 7.30292 6.64548 7.30292 6.94672C7.30292 6.97236 7.29273 6.99695 7.2746 7.01508C7.25647 7.03321 7.23188 7.0434 7.20624 7.0434Z" fill="white"/>
<path d="M11.4002 9.36475C11.3424 9.26141 11.3122 9.14497 11.3123 9.02658C11.3123 8.64373 11.6226 8.3335 12.0054 8.3335C12.3883 8.3335 12.6987 8.64373 12.6987 9.02658C12.6987 9.40943 12.3883 9.71967 12.0054 9.71967C11.9461 9.71967 11.8885 9.71215 11.8337 9.69818C11.6477 9.65092 11.4917 9.52824 11.4002 9.36475Z" fill="#77D379"/>
<path d="M11.8337 9.69852V9.69873L10.8184 13.6721H4.8801L3.86475 9.69873V9.69852C4.0508 9.65125 4.20678 9.52857 4.2983 9.36508C4.59307 9.48174 4.91447 9.54533 5.2507 9.54533C6.35779 9.54533 7.30289 8.85311 7.67715 7.87836V7.87793C7.73301 7.88824 7.79037 7.89361 7.84924 7.89361C7.90811 7.89361 7.96547 7.88824 8.02133 7.87793V7.87836C8.39559 8.85332 9.34068 9.54533 10.4478 9.54533C10.784 9.54533 11.1054 9.48174 11.4002 9.36508C11.4917 9.52857 11.6477 9.65125 11.8337 9.69852Z" fill="#FBDE9E"/>
<path d="M11.5198 9.12386C11.4942 9.12386 11.4696 9.11367 11.4515 9.09554C11.4333 9.07741 11.4232 9.05282 11.4232 9.02718C11.4232 8.70607 11.6844 8.44482 12.0055 8.44482C12.0311 8.44482 12.0557 8.45501 12.0738 8.47314C12.092 8.49127 12.1022 8.51586 12.1022 8.5415C12.1022 8.56714 12.092 8.59174 12.0738 8.60987C12.0557 8.628 12.0311 8.63818 12.0055 8.63818C11.791 8.63818 11.6165 8.81268 11.6165 9.02718C11.6165 9.05282 11.6063 9.07741 11.5882 9.09554C11.5701 9.11367 11.5455 9.12386 11.5198 9.12386ZM3.2074 9.12386C3.18176 9.12386 3.15717 9.11367 3.13903 9.09554C3.1209 9.07741 3.11072 9.05282 3.11072 9.02718C3.11072 8.70607 3.37197 8.44482 3.69305 8.44482C3.71869 8.44482 3.74328 8.45501 3.76141 8.47314C3.77955 8.49127 3.78973 8.51586 3.78973 8.5415C3.78973 8.56714 3.77955 8.59174 3.76141 8.60987C3.74328 8.628 3.71869 8.63818 3.69305 8.63818C3.47857 8.63818 3.30408 8.81268 3.30408 9.02718C3.30408 9.05282 3.29389 9.07741 3.27576 9.09554C3.25763 9.11367 3.23304 9.12386 3.2074 9.12386Z" fill="white"/>
<defs>
<linearGradient id="paint0_linear_351_119" x1="0" y1="6.11292" x2="17" y2="6.11292" gradientUnits="userSpaceOnUse">
<stop stop-color="#C98B0E"/>
<stop offset="0.45" stop-color="#E6AE3D"/>
<stop offset="0.72" stop-color="#AB760B"/>
<stop offset="1" stop-color="#EAA928"/>
</linearGradient>
<linearGradient id="paint1_linear_351_119" x1="0" y1="13.0349" x2="17" y2="13.0349" gradientUnits="userSpaceOnUse">
<stop stop-color="#C98B0E"/>
<stop offset="0.45" stop-color="#E6AE3D"/>
<stop offset="0.72" stop-color="#AB760B"/>
<stop offset="1" stop-color="#EAA928"/>
</linearGradient>
</defs>
</svg>
