<svg xmlns="http://www.w3.org/2000/svg" width="27" height="25" viewBox="0 0 27 25" fill="none">
  <path d="M19.596 0C24.252 0 27 2.6792 27 7.26543H21.288V7.31223C18.637 7.31223 16.488 9.40746 16.488 11.9921C16.488 14.5767 18.637 16.6719 21.288 16.6719H27V17.0931C27 21.6208 24.252 24.3 19.596 24.3H7.404C2.748 24.3 0 21.6208 0 17.0931V7.20693C0 2.6792 2.748 0 7.404 0H19.596ZM25.992 9.27776C26.5487 9.27776 27 9.71775 27 10.2605V13.6768C26.9935 14.2169 26.546 14.6532 25.992 14.6596H21.396C20.054 14.6772 18.8804 13.7813 18.576 12.5068C18.4236 11.7157 18.6376 10.8993 19.1606 10.2765C19.6837 9.65367 20.4624 9.2881 21.288 9.27776H25.992ZM21.936 10.8572H21.492C21.2194 10.8541 20.9569 10.9575 20.763 11.1443C20.5691 11.3311 20.46 11.5859 20.46 11.8517C20.46 12.4093 20.9201 12.8631 21.492 12.8695H21.936C22.506 12.8695 22.968 12.419 22.968 11.8634C22.968 11.3077 22.506 10.8572 21.936 10.8572ZM14.016 5.25311H6.396C5.8307 5.25307 5.37057 5.69645 5.364 6.24757C5.364 6.80518 5.82411 7.25902 6.396 7.26543H14.016C14.586 7.26543 15.048 6.81496 15.048 6.25927C15.048 5.70358 14.586 5.25311 14.016 5.25311Z" fill="#000"/>
</svg>