<svg xmlns="http://www.w3.org/2000/svg" width="22" height="22" viewBox="0 0 22 22" fill="none">
  <path fill-rule="evenodd" clip-rule="evenodd" d="M0.282908 0.282908C0.660119 -0.0943028 1.2717 -0.0943028 1.64891 0.282908L10.625 9.259L19.6011 0.282909C19.9783 -0.094302 20.5899 -0.0943018 20.9671 0.282909C21.3443 0.66012 21.3443 1.2717 20.9671 1.64891L11.991 10.625L20.9671 19.6011C21.3443 19.9783 21.3443 20.5899 20.9671 20.9671C20.5899 21.3443 19.9783 21.3443 19.6011 20.9671L10.625 11.991L1.64891 20.9671C1.2717 21.3443 0.660119 21.3443 0.282908 20.9671C-0.0943028 20.5899 -0.0943028 19.9783 0.282908 19.6011L9.259 10.625L0.282908 1.64891C-0.0943028 1.2717 -0.0943028 0.660119 0.282908 0.282908Z" fill="#000"/>
</svg>